<?xml version="1.0" standalone="no"?>
<!DOCTYPE svg PUBLIC "-//W3C//DTD SVG 20010904//EN"
 "http://www.w3.org/TR/2001/REC-SVG-20010904/DTD/svg10.dtd">
<svg version="1.0" xmlns="http://www.w3.org/2000/svg"
 width="920.000000pt" height="920.000000pt" viewBox="0 0 920.000000 920.000000"
 preserveAspectRatio="xMidYMid meet">
<metadata>
Created by potrace 1.16, written by Peter Selinger 2001-2019
</metadata>
<g transform="translate(0.000000,920.000000) scale(0.100000,-0.100000)"
fill="#000000" stroke="none">
<path d="M1365 9189 c-27 -5 -88 -19 -134 -30 -46 -11 -95 -23 -110 -26 -14
-2 -30 -8 -36 -12 -5 -5 -55 -28 -110 -51 -55 -24 -106 -48 -113 -53 -15 -12
-69 -43 -102 -59 -14 -7 -36 -23 -50 -35 -14 -13 -28 -23 -32 -23 -3 0 -13 -6
-20 -12 -7 -7 -38 -32 -68 -55 -64 -48 -162 -140 -176 -165 -5 -9 -26 -34 -46
-57 -21 -22 -38 -44 -38 -48 0 -5 -9 -14 -20 -21 -11 -7 -20 -18 -20 -26 0 -7
-10 -25 -23 -40 -13 -14 -36 -52 -52 -84 -16 -31 -31 -59 -35 -62 -6 -5 -45
-90 -45 -100 -2 -16 -17 -50 -23 -50 -4 0 -9 -12 -10 -26 -1 -15 -7 -34 -14
-41 -13 -16 -15 -24 -25 -75 -3 -18 -10 -38 -15 -45 -5 -7 -7 -17 -3 -23 3 -5
2 -10 -2 -10 -5 0 -9 -8 -10 -17 0 -10 -8 -67 -17 -128 -15 -100 -16 -391 -13
-3260 3 -3001 4 -3154 21 -3225 10 -41 19 -84 20 -95 0 -11 4 -25 8 -31 4 -6
9 -23 12 -39 3 -15 10 -33 15 -38 5 -5 7 -16 4 -23 -3 -8 -1 -14 5 -14 6 0 13
-18 17 -40 4 -22 11 -42 16 -46 5 -3 9 -13 9 -23 0 -10 7 -24 15 -31 8 -7 15
-19 15 -27 0 -8 9 -26 20 -40 11 -14 20 -33 20 -42 0 -10 9 -26 19 -38 11 -11
33 -45 50 -75 35 -62 100 -139 216 -253 101 -100 163 -155 192 -168 13 -6 23
-13 23 -16 0 -4 21 -18 47 -31 27 -14 50 -28 53 -32 11 -14 237 -117 310 -141
147 -48 176 -56 281 -71 95 -14 441 -16 3209 -16 2768 0 3114 2 3209 16 104
15 129 21 281 70 81 27 365 164 396 192 10 9 37 30 59 47 69 51 88 68 170 150
113 113 183 196 217 256 17 29 39 61 49 73 11 11 19 22 20 25 4 29 10 45 22
59 8 10 17 29 21 45 3 15 11 27 16 27 6 0 10 9 10 19 0 11 4 22 9 25 5 3 12
23 16 43 4 21 11 44 17 50 6 7 7 13 3 13 -4 0 -2 6 4 14 7 8 14 27 17 42 3 15
8 32 12 38 4 6 8 20 8 31 1 11 10 54 20 95 17 71 18 224 21 3225 3 2883 2
3160 -13 3265 -9 63 -16 123 -16 133 0 10 -4 15 -10 11 -7 -4 -8 -2 -4 5 4 6
3 17 -2 24 -5 7 -12 30 -15 52 -4 22 -15 58 -26 80 -10 22 -17 43 -14 47 2 5
0 8 -6 8 -6 0 -15 19 -21 43 -6 23 -22 59 -36 79 -13 21 -24 42 -24 47 0 11
-34 65 -80 127 -16 23 -30 45 -30 50 0 5 -10 20 -22 34 -13 14 -40 46 -61 70
-49 57 -148 160 -154 160 -2 0 -11 6 -18 13 -15 13 -52 44 -100 83 -16 13 -35
24 -42 24 -6 0 -18 8 -25 18 -7 9 -38 30 -68 46 -30 16 -58 34 -62 40 -4 6 -8
8 -8 3 0 -4 -17 3 -37 16 -21 13 -49 27 -61 31 -13 5 -45 17 -70 29 -26 11
-51 22 -57 23 -5 2 -53 16 -106 32 -52 17 -113 34 -135 38 -54 11 -6446 14
-6509 3z m6295 -1874 l0 -595 -309 0 c-345 0 -409 -8 -520 -61 -108 -53 -218
-178 -259 -292 -25 -73 -27 -97 -27 -342 l0 -240 558 -3 557 -2 -2 -593 -3
-592 -557 -3 -558 -2 0 -1835 0 -1835 -785 0 -785 0 0 1838 0 1837 -500 -3
-500 -2 0 597 0 598 500 -3 500 -2 0 373 c0 272 4 406 15 497 14 117 55 300
74 338 5 9 30 62 56 117 67 144 145 255 264 377 116 121 226 201 376 275 155
78 249 107 420 133 107 16 195 18 803 19 l682 1 0 -595z"/>
</g>
</svg>
