<?xml version="1.0" standalone="no"?>
<!DOCTYPE svg PUBLIC "-//W3C//DTD SVG 20010904//EN"
 "http://www.w3.org/TR/2001/REC-SVG-20010904/DTD/svg10.dtd">
<svg version="1.0" xmlns="http://www.w3.org/2000/svg"
 width="512.000000pt" height="512.000000pt" viewBox="0 0 512.000000 512.000000"
 preserveAspectRatio="xMidYMid meet">
<metadata>
Created by potrace 1.16, written by Peter Selinger 2001-2019
</metadata>
<g transform="translate(0.000000,512.000000) scale(0.100000,-0.100000)"
fill="#000000" stroke="none">
<path d="M2304 5045 c-214 -27 -472 -89 -666 -159 -884 -321 -1437 -1021
-1608 -2036 -28 -161 -38 -522 -20 -678 51 -446 234 -879 527 -1242 88 -110
282 -310 403 -415 185 -161 423 -302 676 -400 139 -54 206 -65 252 -41 58 30
62 49 62 319 l0 244 -197 6 c-313 9 -419 42 -549 172 -60 60 -79 89 -136 205
-78 159 -131 229 -232 307 -61 48 -116 108 -116 127 0 3 25 12 56 21 71 20
114 14 202 -31 87 -44 132 -87 236 -227 48 -64 103 -129 123 -146 63 -52 165
-100 241 -113 62 -10 70 -14 61 -29 -34 -64 26 -116 81 -71 l23 19 -38 35 -39
35 60 7 c78 10 187 42 213 64 11 9 48 88 82 177 34 88 63 165 65 170 3 6 -9
12 -26 13 -141 11 -388 81 -524 149 -324 162 -497 416 -561 828 -23 147 -16
413 14 528 39 150 78 232 163 348 55 76 59 102 32 216 -29 121 -7 361 45 495
17 46 48 59 113 49 156 -26 239 -60 538 -222 58 -32 92 -32 227 -6 206 41 321
50 534 44 148 -4 228 -12 339 -32 216 -39 288 -28 459 75 142 86 258 127 390
137 77 6 79 5 96 -21 10 -15 29 -71 43 -124 31 -124 35 -315 9 -436 -10 -43
-15 -87 -11 -99 3 -11 26 -47 51 -80 64 -88 130 -228 160 -342 24 -91 26 -117
27 -295 0 -165 -3 -213 -22 -309 -76 -378 -261 -621 -589 -772 -108 -50 -222
-83 -398 -115 -77 -15 -142 -28 -144 -30 -2 -1 12 -22 32 -46 43 -53 79 -125
100 -198 30 -104 38 -239 36 -605 -3 -398 -1 -408 61 -440 50 -26 105 -18 229
31 752 300 1295 887 1526 1649 80 265 110 503 102 813 -6 241 -20 348 -73 560
-227 913 -955 1639 -1866 1861 -68 16 -170 37 -228 46 -147 23 -502 28 -646
10z"/>
</g>
</svg>
