<?xml version="1.0" standalone="no"?>
<!DOCTYPE svg PUBLIC "-//W3C//DTD SVG 20010904//EN"
 "http://www.w3.org/TR/2001/REC-SVG-20010904/DTD/svg10.dtd">
<svg version="1.0" xmlns="http://www.w3.org/2000/svg"
 width="900.000000pt" height="900.000000pt" viewBox="0 0 900.000000 900.000000"
 preserveAspectRatio="xMidYMid meet">
<metadata>
Created by potrace 1.16, written by Peter Selinger 2001-2019
</metadata>
<g transform="translate(0.000000,900.000000) scale(0.100000,-0.100000)"
fill="#000000" stroke="none">
<path d="M2415 8865 c-2 -5 -6 -487 -10 -1070 -4 -583 -7 -1061 -8 -1062 -2
-1 -36 -5 -77 -8 -92 -9 -154 5 -166 38 -4 12 -10 491 -11 1065 l-4 1042 -159
0 -160 0 -1 -357 c-1 -197 -2 -387 -3 -423 -1 -36 -2 -356 -4 -711 l-2 -647
-69 -7 c-70 -7 -135 -1 -160 14 -7 5 -17 28 -22 52 -5 24 -11 429 -14 899 -3
470 -7 902 -9 960 -4 114 -23 180 -52 180 -9 0 -68 -16 -130 -36 l-114 -37 -1
-78 c-1 -44 -2 -82 -3 -86 -1 -5 -6 -425 -10 -935 l-8 -926 -82 -7 c-45 -4
-102 -3 -126 2 -76 15 -74 -7 -77 613 -6 1040 -8 1173 -22 1198 -12 22 -12 22
-43 5 -43 -26 -294 -269 -362 -352 -71 -87 -125 -181 -211 -368 -119 -259
-131 -346 -140 -1023 -3 -234 -8 -514 -11 -624 l-5 -198 1413 3 1413 4 40 40
c90 90 295 239 452 329 217 124 528 229 763 256 137 16 454 14 584 -5 415 -58
820 -248 1177 -552 l86 -73 1411 0 1411 0 -5 438 c-8 661 -21 1035 -39 1120
-40 186 -132 396 -239 546 -120 167 -369 413 -532 526 -110 76 -252 142 -429
200 l-160 53 -1965 4 c-1081 2 -2221 5 -2534 6 -374 1 -570 -1 -571 -8z m5445
-793 c47 -15 114 -85 141 -147 31 -71 42 -280 36 -685 -7 -404 -20 -468 -105
-525 -73 -48 -142 -55 -567 -55 -592 0 -641 11 -712 163 l-28 62 2 530 2 530
78 73 78 73 520 -4 c356 -3 531 -7 555 -15z"/>
<path d="M4259 6176 c-702 -102 -1288 -644 -1445 -1336 -67 -297 -49 -688 46
-971 76 -228 182 -391 399 -613 279 -284 465 -400 771 -480 308 -81 655 -81
940 0 324 93 568 240 801 481 221 229 388 547 444 845 36 193 36 559 1 730
-43 205 -138 424 -254 588 -82 116 -336 374 -451 459 -208 153 -426 243 -691
286 -138 22 -442 28 -561 11z m397 -511 c109 -19 187 -44 324 -102 217 -94
331 -170 432 -291 178 -212 291 -458 318 -692 37 -314 -52 -626 -250 -874
-334 -418 -862 -579 -1342 -408 -438 156 -739 499 -824 939 -21 108 -23 318
-5 423 20 111 65 241 122 350 153 293 413 509 734 609 192 60 333 73 491 46z"/>
<path d="M150 5763 c-4 -116 2 -2991 6 -3523 l7 -745 49 -153 c95 -294 206
-470 453 -717 267 -267 432 -366 781 -469 l121 -36 2940 0 2939 0 164 50 c319
99 504 208 734 430 233 226 375 456 479 777 l45 138 6 600 c3 330 7 1286 7
2125 l2 1525 -1259 -1 c-763 0 -1274 -4 -1298 -10 -22 -5 -41 -14 -43 -19 -2
-6 18 -46 43 -90 201 -347 263 -499 320 -780 178 -884 -231 -1804 -1010 -2275
-377 -227 -863 -346 -1270 -311 -510 44 -1002 265 -1359 610 -201 194 -313
352 -447 626 -183 376 -215 519 -215 965 1 268 3 305 23 400 51 235 157 495
307 750 30 52 54 99 52 105 -2 5 -19 13 -38 18 -44 12 -2539 22 -2539 10z"/>
</g>
</svg>
