<?xml version="1.0" standalone="no"?>
<!DOCTYPE svg PUBLIC "-//W3C//DTD SVG 20010904//EN"
 "http://www.w3.org/TR/2001/REC-SVG-20010904/DTD/svg10.dtd">
<svg version="1.0" xmlns="http://www.w3.org/2000/svg"
 width="512.000000pt" height="512.000000pt" viewBox="0 0 512.000000 512.000000"
 preserveAspectRatio="xMidYMid meet">
<metadata>
Created by potrace 1.16, written by Peter Selinger 2001-2019
</metadata>
<g transform="translate(0.000000,512.000000) scale(0.100000,-0.100000)"
fill="#000000" stroke="none">
<path d="M2240 5105 c-389 -48 -766 -188 -1091 -404 -504 -335 -871 -825
-1043 -1395 -41 -132 -81 -333 -96 -468 -13 -125 -13 -431 0 -556 108 -1014
825 -1880 1804 -2176 132 -41 333 -81 468 -96 125 -13 431 -13 556 0 592 63
1141 332 1563 766 289 299 494 645 613 1038 74 243 106 468 106 746 0 209 -10
324 -46 505 -181 920 -867 1676 -1768 1949 -132 41 -333 81 -468 96 -131 14
-469 11 -598 -5z m1230 -1075 c101 -29 212 -88 288 -155 59 -51 67 -55 100
-49 68 11 269 82 351 123 44 23 81 36 81 30 0 -6 -19 -47 -41 -90 -47 -89
-149 -206 -228 -260 -54 -37 -64 -52 -28 -45 12 3 60 12 107 21 72 14 199 51
274 81 51 20 -171 -229 -277 -311 l-64 -50 -7 -150 c-8 -168 -26 -313 -54
-431 -134 -557 -456 -1032 -904 -1333 -379 -254 -878 -380 -1348 -341 -342 28
-665 127 -926 284 l-59 36 80 -6 c228 -18 545 50 775 166 75 38 250 151 250
163 0 4 -17 7 -37 7 -95 1 -244 48 -350 111 -128 78 -269 250 -308 376 -6 23
-6 23 67 17 73 -7 244 11 253 26 2 4 -24 15 -58 24 -118 33 -213 92 -318 196
-82 82 -102 108 -141 190 -48 98 -72 183 -81 282 l-5 56 52 -24 c69 -31 198
-64 253 -64 l43 0 -62 53 c-205 174 -308 436 -269 682 16 99 73 266 90 264 3
0 38 -37 76 -81 255 -294 678 -544 1086 -643 119 -28 291 -55 363 -55 42 0 47
2 41 18 -4 9 -10 62 -12 118 -7 140 14 240 78 370 111 226 318 376 574 418 61
9 221 -4 295 -24z"/>
</g>
</svg>
